<svg width="32" height="32" viewBox="0 0 32 32" fill="none" xmlns="http://www.w3.org/2000/svg">
<path d="M30.1945 0.03125L27.5327 28.8634L15.9999 31.9686L4.46698 28.8634L1.80566 0.03125H30.1945ZM24.8307 5.89381H15.9895H6.99173L7.42204 9.37556H15.9895H16.4708L15.9895 9.57587L7.73516 13.0137L8.00892 16.4171L15.9895 16.4429L20.2669 16.4565L19.9931 20.9944L15.9895 22.1216V22.118L15.9567 22.1271L12.0902 21.1511L11.8555 18.3342H11.8427H8.25635H8.24373L8.71316 23.7721L15.9896 25.9239V25.9201L16.0027 25.9239L23.2402 23.8113L24.179 13.0137H15.9896H15.9694L15.9896 13.005L24.479 9.37556L24.8307 5.89381Z" fill="white"/>
</svg>
