<svg width="32" height="32" viewBox="0 0 32 32" fill="none" xmlns="http://www.w3.org/2000/svg">
<path d="M21.136 11.9747H15.0186V0H21.136C24.4373 0 27.1226 2.68533 27.1226 5.98667C27.1226 9.288 24.4373 11.9747 21.136 11.9747ZM16.98 10.0133H21.136C23.356 10.0133 25.1613 8.20667 25.1613 5.988C25.1613 3.76933 23.3546 1.96267 21.136 1.96267H16.98V10.0133ZM16.98 11.9747H10.864C7.56264 11.9747 4.87731 9.28933 4.87731 5.988C4.87731 2.68667 7.56264 0 10.864 0H16.9813V11.9747H16.98ZM10.864 1.96133C8.64398 1.96133 6.83864 3.768 6.83864 5.98667C6.83864 8.20533 8.64398 10.0133 10.864 10.0133H15.02V1.96133H10.864ZM16.98 21.9867H10.864C7.56264 21.9867 4.87731 19.3013 4.87731 16C4.87731 12.6987 7.56264 10.0133 10.864 10.0133H16.9813V21.9867H16.98ZM10.864 11.9747C8.64398 11.9747 6.83864 13.7813 6.83864 16C6.83864 18.2187 8.64531 20.0253 10.864 20.0253H15.02V11.9747H10.864ZM10.896 32C7.57731 32 4.87598 29.3147 4.87598 26.0133C4.87598 22.712 7.56131 20.0267 10.8626 20.0267H16.98V25.948C16.98 29.2853 14.2506 32 10.896 32ZM10.864 21.9867C9.79682 21.9881 8.77379 22.4126 8.01919 23.1672C7.2646 23.9218 6.84005 24.9449 6.83864 26.012C6.83864 28.232 8.65864 30.0373 10.8973 30.0373C13.1706 30.0373 15.0213 28.2027 15.0213 25.9467V21.9867H10.864ZM21.136 21.9867H21.0053C17.704 21.9867 15.0186 19.3013 15.0186 16C15.0186 12.6987 17.704 10.0133 21.0053 10.0133H21.136C24.4373 10.0133 27.1226 12.6987 27.1226 16C27.1226 19.3013 24.4373 21.9867 21.136 21.9867ZM21.0066 11.9747C18.7866 11.9747 16.9813 13.7813 16.9813 16C16.9813 18.2187 18.788 20.0253 21.0066 20.0253H21.1373C23.3573 20.0253 25.1626 18.2187 25.1626 16C25.1626 13.7813 23.3546 11.9747 21.136 11.9747H21.0066Z" fill="white"/>
</svg>
