<svg width="32" height="32" viewBox="0 0 32 32" fill="none" xmlns="http://www.w3.org/2000/svg">
<g clip-path="url(#clip0_515_7143)">
<path d="M17.4532 31.3985C17.2625 31.5896 17.0359 31.7412 16.7865 31.8446C16.5372 31.9481 16.2698 32.0013 15.9998 32.0013C15.7299 32.0013 15.4625 31.9481 15.2131 31.8446C14.9638 31.7412 14.7372 31.5896 14.5465 31.3985L0.601172 17.4518C0.41028 17.2611 0.258845 17.0347 0.155525 16.7854C0.0522039 16.5362 -0.000976563 16.269 -0.000976562 15.9992C-0.000976563 15.7293 0.0522039 15.4622 0.155525 15.2129C0.258845 14.9637 0.41028 14.7372 0.601172 14.5465L10.1892 4.95984L13.8332 8.60384C13.6164 9.18757 13.6284 9.83167 13.8668 10.4069C14.1052 10.9821 14.5524 11.4459 15.1185 11.7052V20.5852C14.607 20.8195 14.1911 21.2216 13.9397 21.7249C13.6883 22.2282 13.6166 22.8023 13.7365 23.352C13.8564 23.9016 14.1606 24.3937 14.5988 24.7466C15.0369 25.0995 15.5826 25.2919 16.1452 25.2919C16.7078 25.2919 17.2534 25.0995 17.6916 24.7466C18.1297 24.3937 18.434 23.9016 18.5539 23.352C18.6738 22.8023 18.6021 22.2282 18.3507 21.7249C18.0993 21.2216 17.6833 20.8195 17.1718 20.5852V11.9425L20.5158 15.2865C20.3198 15.8141 20.3102 16.3929 20.4885 16.9268C20.6667 17.4606 21.0222 17.9174 21.4959 18.2214C21.9696 18.5254 22.533 18.6583 23.0926 18.5979C23.6522 18.5375 24.1743 18.2876 24.5723 17.8897C24.9703 17.4917 25.2202 16.9695 25.2806 16.4099C25.3409 15.8503 25.2081 15.2869 24.9041 14.8132C24.6001 14.3396 24.1433 13.9841 23.6094 13.8058C23.0756 13.6275 22.4968 13.6372 21.9692 13.8332L18.4572 10.3212C18.6211 9.87858 18.6545 9.39826 18.5536 8.93722C18.4527 8.47617 18.2216 8.05376 17.8878 7.7201C17.554 7.38645 17.1315 7.15556 16.6704 7.05483C16.2093 6.95411 15.729 6.98777 15.2865 7.15184L11.6398 3.50651L14.5465 0.601172C14.7372 0.41028 14.9637 0.258845 15.2129 0.155525C15.4622 0.0522039 15.7293 -0.000976563 15.9992 -0.000976562C16.269 -0.000976563 16.5362 0.0522039 16.7854 0.155525C17.0347 0.258845 17.2611 0.41028 17.4518 0.601172L31.3972 14.5478C31.5881 14.7385 31.7395 14.965 31.8428 15.2142C31.9461 15.4635 31.9993 15.7307 31.9993 16.0005C31.9993 16.2703 31.9461 16.5375 31.8428 16.7868C31.7395 17.036 31.5881 17.2625 31.3972 17.4532L17.4532 31.3985Z" fill="white"/>
</g>
<defs>
<clipPath id="clip0_515_7143">
<rect width="32" height="32" fill="white"/>
</clipPath>
</defs>
</svg>
