<svg width="32" height="32" viewBox="0 0 32 32" fill="none" xmlns="http://www.w3.org/2000/svg">
<g clip-path="url(#clip0_515_7141)">
<path d="M16 0.396484C7.16 0.396484 0 7.56048 0 16.3965C0 23.4671 4.584 29.4631 10.94 31.5765C11.74 31.7271 12.0333 31.2325 12.0333 30.8071C12.0333 30.4271 12.02 29.4205 12.0133 28.0871C7.56267 29.0525 6.624 25.9405 6.624 25.9405C5.896 24.0938 4.844 23.6005 4.844 23.6005C3.39467 22.6085 4.956 22.6285 4.956 22.6285C6.56267 22.7405 7.40667 24.2765 7.40667 24.2765C8.83333 26.7232 11.152 26.0165 12.0667 25.6071C12.2107 24.5725 12.6227 23.8671 13.08 23.4671C9.52667 23.0671 5.792 21.6912 5.792 15.5605C5.792 13.8138 6.412 12.3871 7.43867 11.2671C7.25867 10.8632 6.71867 9.23648 7.57867 7.03248C7.57867 7.03248 8.91867 6.60315 11.9787 8.67248C13.2587 8.31648 14.6187 8.14048 15.9787 8.13248C17.3387 8.14048 18.6987 8.31648 19.9787 8.67248C23.0187 6.60315 24.3587 7.03248 24.3587 7.03248C25.2187 9.23648 24.6787 10.8632 24.5187 11.2671C25.5387 12.3871 26.1587 13.8138 26.1587 15.5605C26.1587 21.7071 22.4187 23.0605 18.8587 23.4538C19.4187 23.9338 19.9387 24.9151 19.9387 26.4138C19.9387 28.5551 19.9187 30.2751 19.9187 30.7951C19.9187 31.2151 20.1987 31.7151 21.0187 31.5551C27.42 29.4565 32 23.4565 32 16.3965C32 7.56048 24.836 0.396484 16 0.396484Z" fill="white"/>
</g>
<defs>
<clipPath id="clip0_515_7141">
<rect width="32" height="32" fill="white"/>
</clipPath>
</defs>
</svg>
