<svg width="32" height="32" viewBox="0 0 32 32" fill="none" xmlns="http://www.w3.org/2000/svg">
<g clip-path="url(#clip0_515_7139)">
<path d="M30.9669 8.33597C30.9129 8.1981 30.8125 8.08335 30.683 8.01145C30.5536 7.93955 30.4031 7.91498 30.2575 7.94195C30.1119 7.96893 29.9802 8.04577 29.8851 8.15928C29.79 8.27279 29.7374 8.41588 29.7363 8.56397C29.7363 8.63463 29.7536 8.72263 29.7709 8.79197C32.6376 16.4053 28.7696 24.8946 21.1576 27.76C20.114 28.1529 19.0286 28.4245 17.9229 28.5693V21.696C18.3629 21.608 18.7843 21.4853 19.2056 21.344V27.128C26.4656 25.352 30.9309 18.0386 29.1563 10.7786C28.7135 8.95771 27.8972 7.24864 26.7593 5.75973C25.6213 4.27082 24.1864 3.03456 22.5456 2.1293C22.473 2.08838 22.393 2.06229 22.3102 2.05255C22.2274 2.0428 22.1435 2.0496 22.0634 2.07255C21.9832 2.0955 21.9085 2.13414 21.8434 2.18623C21.7783 2.23831 21.7242 2.30281 21.6843 2.37597C21.6433 2.44859 21.6173 2.52861 21.6075 2.61139C21.5978 2.69418 21.6046 2.77807 21.6275 2.85821C21.6505 2.93834 21.6891 3.01312 21.7412 3.07819C21.7933 3.14327 21.8578 3.19735 21.9309 3.2373C27.8549 6.50663 29.9989 13.9786 26.7309 19.9026C25.3548 22.3995 23.146 24.3341 20.4896 25.3693V20.2546C20.8861 20.1292 21.2325 19.8811 21.4788 19.5461C21.7252 19.2111 21.8587 18.8065 21.8603 18.3906C21.8603 17.688 21.5083 17.0546 20.8936 16.7026C21.3509 12.2906 23.3723 13.4506 23.3723 12.0453V11.2186C23.3723 9.1093 18.4856 2.23597 16.1989 2.0773H15.7776C13.4923 2.23597 8.6056 9.1093 8.6056 11.2186V12.0453C8.6056 13.4506 10.6096 12.2906 11.0843 16.7026C10.7894 16.8746 10.5448 17.1211 10.3752 17.4173C10.2055 17.7136 10.1167 18.0492 10.1176 18.3906C10.1176 19.252 10.6803 19.9906 11.4883 20.2546V25.3693C5.2136 22.8906 2.12027 15.7733 4.5976 9.47997C5.64367 6.83055 7.57548 4.62546 10.0643 3.23997C10.139 3.19913 10.2048 3.14376 10.2578 3.07712C10.3108 3.01048 10.35 2.93391 10.3729 2.85192C10.3959 2.76993 10.4023 2.68416 10.3916 2.59968C10.381 2.5152 10.3535 2.43369 10.3109 2.35997C10.2528 2.26282 10.1703 2.18255 10.0716 2.12712C9.97294 2.07169 9.86146 2.04303 9.74827 2.04397C9.64277 2.04572 9.53965 2.07565 9.4496 2.13063C7.89258 2.98834 6.51995 4.14463 5.41023 5.53334C4.30052 6.92205 3.47549 8.51593 2.98237 10.2238C2.48924 11.9317 2.33768 13.72 2.53637 15.4865C2.73505 17.253 3.28008 18.963 4.14027 20.5186C5.04553 22.1595 6.28179 23.5943 7.7707 24.7323C9.2596 25.8703 10.9687 26.6865 12.7896 27.1293V21.36C13.2109 21.5013 13.6336 21.624 14.0723 21.712V28.5853C6.00427 27.5146 0.342935 20.1133 1.41627 12.0453C1.56062 10.9397 1.83174 9.85429 2.22427 8.81063C2.28175 8.65184 2.27538 8.47693 2.20649 8.32274C2.1376 8.16855 2.01157 8.0471 1.85494 7.98397C1.69605 7.92819 1.52183 7.93538 1.36808 8.00407C1.21433 8.07276 1.09273 8.19773 1.02827 8.3533C-2.0824 16.6333 2.1016 25.8613 10.3816 28.956C11.9816 29.5533 13.6509 29.888 15.3549 29.9573V21.8373C15.5843 21.8533 16.0069 21.8533 16.0069 21.8533C16.0069 21.8533 16.4283 21.8533 16.6576 21.836V29.94C25.4989 29.5706 32.3549 22.1173 31.9856 13.2746C31.8994 11.5862 31.5558 9.92075 30.9669 8.33597ZM18.9416 17.4586C19.1899 17.2135 19.5247 17.0761 19.8736 17.0761C20.2225 17.0761 20.5573 17.2135 20.8056 17.4586C21.0507 17.7069 21.1881 18.0418 21.1881 18.3906C21.1881 18.7395 21.0507 19.0743 20.8056 19.3226C20.5573 19.5677 20.2225 19.7051 19.8736 19.7051C19.5247 19.7051 19.1899 19.5677 18.9416 19.3226C18.8191 19.2003 18.722 19.055 18.6557 18.8951C18.5894 18.7352 18.5553 18.5637 18.5553 18.3906C18.5553 18.2175 18.5894 18.0461 18.6557 17.8862C18.722 17.7263 18.8191 17.581 18.9416 17.4586ZM13.0349 19.3226C12.7902 19.5672 12.4583 19.7046 12.1123 19.7046C11.7662 19.7046 11.4344 19.5672 11.1896 19.3226C10.9445 19.0743 10.8071 18.7395 10.8071 18.3906C10.8071 18.0418 10.9445 17.7069 11.1896 17.4586C11.4379 17.2135 11.7727 17.0761 12.1216 17.0761C12.4705 17.0761 12.8053 17.2135 13.0536 17.4586C13.1758 17.5817 13.2723 17.7277 13.3376 17.8883C13.4029 18.0489 13.4357 18.2209 13.4341 18.3943C13.4325 18.5676 13.3965 18.7389 13.3282 18.8983C13.2599 19.0577 13.1607 19.2019 13.0363 19.3226H13.0349Z" fill="white"/>
</g>
<defs>
<clipPath id="clip0_515_7139">
<rect width="32" height="32" fill="white"/>
</clipPath>
</defs>
</svg>
