<svg width="32" height="32" viewBox="0 0 32 32" fill="none" xmlns="http://www.w3.org/2000/svg">
<g clip-path="url(#clip0_515_7038)">
<path d="M29 0H3C2.20435 0 1.44129 0.31607 0.878681 0.87868C0.316072 1.44129 0 2.20435 0 3V29C0 29.7956 0.316072 30.5587 0.878681 31.1213C1.44129 31.6839 2.20435 32 3 32H29C29.7956 32 30.5587 31.6839 31.1213 31.1213C31.6839 30.5587 32 29.7956 32 29V3C32 2.20435 31.6839 1.44129 31.1213 0.87868C30.5587 0.31607 29.7956 0 29 0ZM29 30H10V29C10 28.7348 9.89464 28.4804 9.70711 28.2929C9.51957 28.1054 9.26522 28 9 28C8.73478 28 8.48043 28.1054 8.29289 28.2929C8.10536 28.4804 8 28.7348 8 29V30H6V25C6 24.7348 5.89464 24.4804 5.70711 24.2929C5.51957 24.1054 5.26522 24 5 24C4.73478 24 4.48043 24.1054 4.29289 24.2929C4.10536 24.4804 4 24.7348 4 25V30H3C2.73478 30 2.48043 29.8946 2.29289 29.7071C2.10536 29.5196 2 29.2652 2 29V3C2 2.73478 2.10536 2.48043 2.29289 2.29289C2.48043 2.10536 2.73478 2 3 2H12V19C12 19.2652 12.1054 19.5196 12.2929 19.7071C12.4804 19.8946 12.7348 20 13 20H16.184C16.4199 20.6672 16.8841 21.2296 17.4945 21.5876C18.1049 21.9457 18.8222 22.0765 19.5197 21.9568C20.2172 21.8371 20.85 21.4747 21.3061 20.9337C21.7622 20.3926 22.0124 19.7077 22.0124 19C22.0124 18.2923 21.7622 17.6074 21.3061 17.0663C20.85 16.5253 20.2172 16.1629 19.5197 16.0432C18.8222 15.9235 18.1049 16.0543 17.4945 16.4124C16.8841 16.7704 16.4199 17.3328 16.184 18H14V2H29C29.2652 2 29.5196 2.10536 29.7071 2.29289C29.8946 2.48043 30 2.73478 30 3V4H25C24.7348 4 24.4804 4.10536 24.2929 4.29289C24.1054 4.48043 24 4.73478 24 5C24 5.26522 24.1054 5.51957 24.2929 5.70711C24.4804 5.89464 24.7348 6 25 6H30V8H27C26.7348 8 26.4804 8.10536 26.2929 8.29289C26.1054 8.48043 26 8.73478 26 9C26 9.26522 26.1054 9.51957 26.2929 9.70711C26.4804 9.89464 26.7348 10 27 10H30V12H20V9.816C20.6672 9.5801 21.2296 9.11593 21.5876 8.50552C21.9457 7.89511 22.0765 7.17776 21.9568 6.48027C21.8371 5.78277 21.4747 5.15004 20.9337 4.69389C20.3926 4.23775 19.7077 3.98757 19 3.98757C18.2923 3.98757 17.6074 4.23775 17.0663 4.69389C16.5253 5.15004 16.1629 5.78277 16.0432 6.48027C15.9235 7.17776 16.0543 7.89511 16.4124 8.50552C16.7704 9.11593 17.3328 9.5801 18 9.816V13C18 13.2652 18.1054 13.5196 18.2929 13.7071C18.4804 13.8946 18.7348 14 19 14H30V29C30 29.2652 29.8946 29.5196 29.7071 29.7071C29.5196 29.8946 29.2652 30 29 30ZM18 19C18 18.8022 18.0587 18.6089 18.1685 18.4444C18.2784 18.28 18.4346 18.1518 18.6173 18.0761C18.8 18.0004 19.0011 17.9806 19.1951 18.0192C19.3891 18.0578 19.5673 18.153 19.7071 18.2929C19.847 18.4327 19.9422 18.6109 19.9808 18.8049C20.0194 18.9989 19.9996 19.2 19.9239 19.3827C19.8482 19.5654 19.72 19.7216 19.5556 19.8315C19.3911 19.9414 19.1978 20 19 20C18.7348 20 18.4804 19.8946 18.2929 19.7071C18.1054 19.5196 18 19.2652 18 19ZM18 7C18 6.80222 18.0587 6.60888 18.1685 6.44443C18.2784 6.27998 18.4346 6.15181 18.6173 6.07612C18.8 6.00043 19.0011 5.98063 19.1951 6.01921C19.3891 6.0578 19.5673 6.15304 19.7071 6.29289C19.847 6.43275 19.9422 6.61093 19.9808 6.80491C20.0194 6.99889 19.9996 7.19996 19.9239 7.38268C19.8482 7.56541 19.72 7.72159 19.5556 7.83147C19.3911 7.94135 19.1978 8 19 8C18.7348 8 18.4804 7.89464 18.2929 7.70711C18.1054 7.51957 18 7.26522 18 7ZM25 22C24.3817 22.0026 23.7794 22.1961 23.2753 22.5541C22.7712 22.9121 22.3901 23.4171 22.184 24H11.414L8 20.586V9.816C8.66721 9.5801 9.22955 9.11593 9.58763 8.50552C9.94571 7.89511 10.0765 7.17776 9.95679 6.48027C9.83712 5.78277 9.47473 5.15004 8.93366 4.69389C8.39259 4.23775 7.70769 3.98757 7 3.98757C6.29231 3.98757 5.60741 4.23775 5.06634 4.69389C4.52527 5.15004 4.16288 5.78277 4.04321 6.48027C3.92353 7.17776 4.05429 7.89511 4.41237 8.50552C4.77045 9.11593 5.33279 9.5801 6 9.816V21C5.99977 21.1314 6.02544 21.2616 6.07554 21.3831C6.12564 21.5045 6.1992 21.615 6.292 21.708L10.292 25.708C10.385 25.8008 10.4955 25.8744 10.6169 25.9245C10.7384 25.9746 10.8686 26.0002 11 26H22.184C22.3675 26.519 22.6903 26.9776 23.117 27.3254C23.5438 27.6732 24.058 27.8969 24.6034 27.972C25.1487 28.047 25.7043 27.9706 26.2091 27.751C26.7139 27.5314 27.1486 27.1771 27.4655 26.7269C27.7824 26.2768 27.9693 25.7481 28.0058 25.1988C28.0423 24.6495 27.9269 24.1007 27.6723 23.6126C27.4177 23.1245 27.0338 22.7158 26.5624 22.4314C26.091 22.147 25.5505 21.9977 25 22ZM7 6C7.19778 6 7.39112 6.05865 7.55557 6.16853C7.72002 6.27841 7.84819 6.43459 7.92388 6.61732C7.99957 6.80004 8.01937 7.00111 7.98079 7.19509C7.9422 7.38907 7.84696 7.56725 7.70711 7.70711C7.56726 7.84696 7.38907 7.9422 7.19509 7.98079C7.00111 8.01937 6.80004 7.99957 6.61732 7.92388C6.43459 7.84819 6.27841 7.72002 6.16853 7.55557C6.05865 7.39112 6 7.19778 6 7C6 6.73478 6.10536 6.48043 6.29289 6.29289C6.48043 6.10536 6.73478 6 7 6ZM25 26C24.8022 26 24.6089 25.9414 24.4444 25.8315C24.28 25.7216 24.1518 25.5654 24.0761 25.3827C24.0004 25.2 23.9806 24.9989 24.0192 24.8049C24.0578 24.6109 24.153 24.4327 24.2929 24.2929C24.4327 24.153 24.6109 24.0578 24.8049 24.0192C24.9989 23.9806 25.2 24.0004 25.3827 24.0761C25.5654 24.1518 25.7216 24.28 25.8315 24.4444C25.9413 24.6089 26 24.8022 26 25C26 25.2652 25.8946 25.5196 25.7071 25.7071C25.5196 25.8946 25.2652 26 25 26Z" fill="white"/>
</g>
<defs>
<clipPath id="clip0_515_7038">
<rect width="32" height="32" fill="white"/>
</clipPath>
</defs>
</svg>
