<svg width="32" height="32" viewBox="0 0 32 32" fill="none" xmlns="http://www.w3.org/2000/svg">
<g clip-path="url(#clip0_515_7083)">
<path d="M18.5677 25.3724C18.4397 25.2014 18.2935 25.0783 18.1302 25.0028C17.9669 24.9272 17.7948 24.8896 17.6132 24.8896C17.4273 24.8896 17.2502 24.9244 17.0814 24.995C16.9126 25.0656 16.7619 25.1848 16.629 25.3531C16.496 25.5214 16.3912 25.7388 16.3161 26.0058C16.2406 26.2723 16.2003 26.5989 16.1953 26.9862C16.2003 27.3636 16.2395 27.6852 16.3123 27.9517C16.3851 28.2182 16.4855 28.4356 16.6141 28.6044C16.7426 28.7732 16.8883 28.8957 17.0516 28.9741C17.2149 29.0524 17.387 29.091 17.5686 29.091C17.7545 29.091 17.9316 29.0546 18.1004 28.9818C18.2692 28.909 18.4199 28.7892 18.5528 28.6237C18.6858 28.4582 18.7906 28.2403 18.8657 27.971C18.9407 27.7018 18.9815 27.3741 18.9865 26.9868C18.9815 26.6094 18.9423 26.2888 18.8695 26.0251C18.7967 25.7614 18.6963 25.5434 18.5677 25.3724Z" fill="white"/>
<path d="M28.4135 21.5172V7.712C28.4135 7.28938 28.3628 6.97655 28.1101 6.72331L21.6897 0.303448C21.4971 0.110897 21.2301 0 20.957 0H4.94483C4.29049 0 3.58594 0.505379 3.58594 1.61434V21.5172H28.4135ZM16.2756 18.2069C16.2756 18.5114 16.029 18.7586 15.7239 18.7586C15.4188 18.7586 15.1721 18.5114 15.1721 18.2069V16.5517C15.1721 16.2472 15.4188 16 15.7239 16C16.029 16 16.2756 16.2472 16.2756 16.5517V18.2069ZM20.6894 1.8709C20.6894 1.61821 20.9945 1.49186 21.1732 1.67062L26.7429 7.24028C26.9217 7.41903 26.7953 7.72414 26.5426 7.72414H20.6894V1.8709ZM20.1377 13.2414V11.0345C20.1377 10.7305 19.8905 10.4828 19.5859 10.4828C19.2808 10.4828 19.0342 10.2356 19.0342 9.93103C19.0342 9.62648 19.2808 9.37931 19.5859 9.37931C20.4985 9.37931 21.2411 10.1219 21.2411 11.0345V13.2414C21.2411 13.8499 21.736 14.3448 22.3446 14.3448C22.6497 14.3448 22.8963 14.592 22.8963 14.8966C22.8963 15.2011 22.6497 15.4483 22.3446 15.4483C21.736 15.4483 21.2411 15.9432 21.2411 16.5517V18.7586C21.2411 19.6712 20.4985 20.4138 19.5859 20.4138C19.2808 20.4138 19.0342 20.1666 19.0342 19.8621C19.0342 19.5575 19.2808 19.3103 19.5859 19.3103C19.8905 19.3103 20.1377 19.0626 20.1377 18.7586V16.5517C20.1377 15.8897 20.4367 15.3015 20.9001 14.8966C20.4367 14.4916 20.1377 13.9034 20.1377 13.2414ZM15.7239 12.1379C16.1807 12.1379 16.5515 12.5087 16.5515 12.9655C16.5515 13.4223 16.1807 13.7931 15.7239 13.7931C15.267 13.7931 14.8963 13.4223 14.8963 12.9655C14.8963 12.5087 15.267 12.1379 15.7239 12.1379ZM9.10318 14.3448C9.71173 14.3448 10.2066 13.8499 10.2066 13.2414V11.0345C10.2066 10.1219 10.9492 9.37931 11.8618 9.37931C12.1669 9.37931 12.4135 9.62648 12.4135 9.93103C12.4135 10.2356 12.1669 10.4828 11.8618 10.4828C11.5572 10.4828 11.3101 10.7305 11.3101 11.0345V13.2414C11.3101 13.9034 11.011 14.4916 10.5476 14.8966C11.011 15.3015 11.3101 15.8897 11.3101 16.5517V18.7586C11.3101 19.0626 11.5572 19.3103 11.8618 19.3103C12.1669 19.3103 12.4135 19.5575 12.4135 19.8621C12.4135 20.1666 12.1669 20.4138 11.8618 20.4138C10.9492 20.4138 10.2066 19.6712 10.2066 18.7586V16.5517C10.2066 15.9432 9.71173 15.4483 9.10318 15.4483C8.79808 15.4483 8.55145 15.2011 8.55145 14.8966C8.55145 14.592 8.79808 14.3448 9.10318 14.3448Z" fill="white"/>
<path d="M3.58594 22.6211V30.897C3.58594 31.4536 4.25904 32.0004 4.94483 32.0004H27.0546C27.7404 32.0004 28.4135 31.4536 28.4135 30.897V22.6211H3.58594ZM9.94235 28.4506C9.94235 28.7121 9.89435 28.9323 9.7989 29.1105C9.70345 29.2887 9.57545 29.4321 9.41435 29.5403C9.25325 29.6484 9.06842 29.724 8.85987 29.7665C8.65132 29.809 8.43614 29.8305 8.2149 29.8305C8.10456 29.8305 7.97435 29.8189 7.82649 29.7963C7.67863 29.7736 7.5247 29.7389 7.36635 29.6909C7.20801 29.6429 7.05573 29.5888 6.91008 29.5287C6.76442 29.4685 6.64139 29.4007 6.54042 29.3251L6.92497 28.7143C6.97518 28.7491 7.0469 28.7861 7.14014 28.8236C7.23339 28.8611 7.33545 28.8964 7.4458 28.929C7.55614 28.9615 7.67201 28.9902 7.79283 29.0156C7.91366 29.041 8.02676 29.0531 8.13214 29.0531C8.39863 29.0531 8.61104 29.0012 8.76939 28.8986C8.92773 28.796 9.01159 28.6205 9.02208 28.3745V24.1201H9.94235V28.4506ZM14.3214 28.8545C14.2386 29.0432 14.1217 29.2092 13.9705 29.3521C13.8193 29.495 13.6339 29.6098 13.4121 29.6953C13.1904 29.7808 12.9399 29.8233 12.6579 29.8233C12.5371 29.8233 12.413 29.8167 12.2844 29.8045C12.1559 29.7924 12.0268 29.7703 11.896 29.7405C11.7652 29.7102 11.6406 29.6688 11.5225 29.6159C11.4044 29.5629 11.3029 29.4989 11.2168 29.4233L11.3752 28.7745C11.4458 28.8147 11.5346 28.8539 11.6428 28.8914C11.7509 28.929 11.8624 28.9643 11.9782 28.9968C12.0941 29.0294 12.2094 29.0559 12.3252 29.0763C12.4411 29.0967 12.5487 29.1066 12.6497 29.1066C12.9564 29.1066 13.1915 29.0349 13.3548 28.8914C13.5181 28.748 13.5997 28.5356 13.5997 28.2542C13.5997 28.0832 13.5424 27.9375 13.4265 27.8167C13.3106 27.6959 13.1661 27.5866 12.9928 27.4884C12.8196 27.3902 12.632 27.2925 12.4306 27.1943C12.2292 27.0961 12.0411 26.9803 11.8651 26.8473C11.6891 26.7143 11.5435 26.5571 11.4276 26.3761C11.3117 26.1952 11.2544 25.969 11.2544 25.6975C11.2544 25.4514 11.2996 25.2324 11.3901 25.0415C11.4806 24.8506 11.6025 24.6879 11.7559 24.5549C11.9092 24.4219 12.088 24.3199 12.2916 24.2492C12.4952 24.1786 12.7104 24.1439 12.9366 24.1439C13.1677 24.1439 13.4017 24.1654 13.6378 24.2079C13.8739 24.2503 14.0648 24.3199 14.211 24.4153C14.1807 24.4804 14.1459 24.5521 14.1057 24.6305C14.0654 24.7088 14.0273 24.7811 13.9926 24.849C13.9578 24.9168 13.9275 24.9736 13.9021 25.0189C13.8767 25.0641 13.8618 25.0895 13.8568 25.0945C13.8265 25.0796 13.7928 25.0597 13.7548 25.0343C13.7167 25.009 13.6632 24.9841 13.5926 24.9587C13.5219 24.9334 13.4292 24.9163 13.3134 24.9058C13.1975 24.8953 13.0491 24.8981 12.8681 24.9135C12.7672 24.924 12.6723 24.9521 12.5812 25.0001C12.4902 25.0481 12.4102 25.1066 12.3396 25.1772C12.269 25.2479 12.2138 25.3267 12.1735 25.415C12.1332 25.5033 12.1134 25.5877 12.1134 25.6677C12.1134 25.8685 12.1708 26.0307 12.2866 26.1543C12.4025 26.2779 12.5459 26.3855 12.7164 26.4787C12.8869 26.572 13.0734 26.6625 13.2748 26.7502C13.4761 26.8379 13.6632 26.9455 13.837 27.0707C14.0108 27.196 14.1548 27.3538 14.2706 27.5419C14.3865 27.7301 14.4439 27.9728 14.4439 28.2696C14.4461 28.471 14.4041 28.6658 14.3214 28.8545ZM19.7299 28.2244C19.6119 28.5814 19.448 28.8782 19.2395 29.1143C19.0309 29.3505 18.787 29.5292 18.5079 29.6501C18.2287 29.7709 17.923 29.831 17.5915 29.831C17.2599 29.831 16.9542 29.7709 16.675 29.6501C16.3959 29.5292 16.152 29.351 15.9435 29.1143C15.7349 28.8776 15.571 28.5814 15.453 28.2244C15.3349 27.8674 15.2759 27.4547 15.2759 26.9874C15.2759 26.5201 15.3349 26.1085 15.453 25.7543C15.571 25.4001 15.7349 25.1044 15.9435 24.8683C16.152 24.6321 16.3959 24.4523 16.675 24.3287C16.9542 24.2051 17.2599 24.1439 17.5915 24.1439C17.923 24.1439 18.2287 24.2051 18.5079 24.3287C18.787 24.4523 19.0309 24.6316 19.2395 24.8683C19.448 25.105 19.6119 25.4001 19.7299 25.7543C19.848 26.1085 19.907 26.5201 19.907 26.9874C19.907 27.4547 19.848 27.8674 19.7299 28.2244ZM25.2025 29.7935H24.2822L22.1024 25.9618V29.7935H21.1821V24.2343H22.1024L24.2822 28.0661V24.2343H25.2025V29.7935Z" fill="white"/>
</g>
<defs>
<clipPath id="clip0_515_7083">
<rect width="32" height="32" fill="white"/>
</clipPath>
</defs>
</svg>
