<svg width="32" height="32" viewBox="0 0 32 32" fill="none" xmlns="http://www.w3.org/2000/svg">
<path d="M16.6724 0C16.4657 0 16.2524 0.0106667 16.0324 0.028C10.3977 0.472 11.8924 6.43733 11.8057 8.42533C11.7044 9.88133 11.4057 11.0293 10.4057 12.452C9.22573 13.8533 7.56973 16.1187 6.78439 18.48C6.41372 19.5893 6.23773 20.7253 6.40173 21.7987C6.34091 21.8479 6.29097 21.9092 6.25506 21.9787C5.90839 22.336 5.65506 22.7787 5.37106 23.0973C5.10572 23.3627 4.72439 23.4533 4.30839 23.6307C3.89106 23.812 3.43106 23.9893 3.15639 24.5373C3.03639 24.7893 2.97506 25.0627 2.98039 25.34C2.98039 25.6053 3.01639 25.8733 3.05372 26.0547C3.13106 26.5867 3.20839 27.0253 3.10706 27.348C2.77506 28.2547 2.73372 28.8747 2.96572 29.3267C3.19772 29.772 3.67906 29.9533 4.21906 30.128C5.29906 30.3947 6.76573 30.308 7.91773 30.928C9.15239 31.5493 10.4057 31.8213 11.4057 31.5547C12.1071 31.4 12.6991 30.936 13.0164 30.2933C13.7991 30.2893 14.6564 29.9347 16.0297 29.848C16.9617 29.7707 18.1284 30.204 19.4657 30.1147C19.4991 30.2933 19.5497 30.3787 19.6177 30.5587L19.6217 30.5627C20.1431 31.6 21.1057 32.072 22.1337 31.9907C23.1617 31.9107 24.2564 31.276 25.1431 30.2493C25.9844 29.2293 27.3871 28.804 28.3137 28.2453C28.7777 27.98 29.1524 27.62 29.1791 27.108C29.2097 26.5747 28.9124 26.0267 28.2271 25.2733V25.144L28.2231 25.14C27.9964 24.8733 27.8897 24.4267 27.7724 23.9053C27.6591 23.3707 27.5297 22.8573 27.1164 22.5107H27.1124C27.0337 22.4387 26.9484 22.4213 26.8617 22.3307C26.7872 22.2786 26.6993 22.249 26.6084 22.2453C27.1831 20.5413 26.9604 18.8453 26.3777 17.32C25.6671 15.44 24.4244 13.8027 23.4777 12.676C22.4164 11.336 21.3764 10.0667 21.3977 8.18533C21.4324 5.316 21.7124 0.008 16.6724 0ZM17.3777 4.54H17.3951C17.6791 4.54 17.9231 4.62267 18.1737 4.804C18.4271 4.984 18.6137 5.24667 18.7577 5.51467C18.8977 5.86 18.9684 6.12667 18.9791 6.48C18.9791 6.45333 18.9871 6.42667 18.9871 6.4V6.54C18.9841 6.53092 18.9823 6.52152 18.9817 6.512L18.9764 6.48C18.9737 6.80403 18.9057 7.1242 18.7764 7.42133C18.7141 7.58851 18.6174 7.7407 18.4924 7.868C18.4546 7.84667 18.4154 7.82796 18.3751 7.812C18.2364 7.752 18.1111 7.72667 17.9964 7.63467C17.9014 7.59681 17.8032 7.56737 17.7031 7.54667C17.7697 7.46667 17.8977 7.36933 17.9471 7.28267C18.0177 7.112 18.0564 6.93067 18.0644 6.74667V6.72C18.0674 6.53892 18.0399 6.35862 17.9831 6.18667C17.9231 6.008 17.8484 5.92 17.7391 5.74267C17.6271 5.65467 17.5164 5.56667 17.3831 5.56667H17.3617C17.2377 5.56667 17.1271 5.60667 17.0124 5.74267C16.8858 5.86615 16.7918 6.01919 16.7391 6.188C16.6682 6.35741 16.6276 6.53791 16.6191 6.72133V6.74667C16.6217 6.86533 16.6297 6.98533 16.6457 7.10267C16.3884 7.01333 16.0617 6.92267 15.8364 6.83333C15.8229 6.74502 15.8149 6.65596 15.8124 6.56667V6.54C15.8019 6.18803 15.8703 5.83816 16.0124 5.516C16.1217 5.22267 16.3217 4.97467 16.5857 4.80533C16.8136 4.63258 17.0917 4.54028 17.3777 4.54ZM13.4284 4.61867H13.4764C13.6657 4.61867 13.8364 4.68267 14.0084 4.79867C14.2031 4.97067 14.3604 5.18267 14.4671 5.41867C14.5871 5.684 14.6537 5.952 14.6711 6.308V6.31333C14.6804 6.492 14.6791 6.58 14.6684 6.668V6.77467C14.6284 6.784 14.5937 6.79867 14.5577 6.80667C14.3551 6.88 14.1924 6.98667 14.0337 7.07333C14.0497 6.95333 14.0511 6.83333 14.0377 6.71733V6.69733C14.0217 6.52 13.9844 6.43067 13.9284 6.25333C13.8868 6.11744 13.8105 5.99474 13.7071 5.89733C13.6742 5.86745 13.6357 5.8445 13.5937 5.82984C13.5518 5.81518 13.5074 5.80911 13.4631 5.812H13.4351C13.3404 5.82 13.2617 5.86533 13.1871 5.988C13.102 6.09123 13.0467 6.21569 13.0271 6.348C12.991 6.49172 12.9806 6.64067 12.9964 6.788V6.808C13.0124 6.988 13.0457 7.07467 13.1031 7.25333C13.1644 7.432 13.2337 7.52 13.3244 7.61067C13.3377 7.62267 13.3511 7.63467 13.3697 7.64267C13.2764 7.71867 13.2137 7.736 13.1351 7.824C13.0852 7.86811 13.0252 7.89925 12.9604 7.91467C12.8218 7.74777 12.699 7.56833 12.5937 7.37867C12.4677 7.09848 12.3975 6.7964 12.3871 6.48933C12.365 6.18835 12.4012 5.88593 12.4937 5.59867C12.5672 5.33669 12.6958 5.09347 12.8711 4.88533C13.0417 4.708 13.2177 4.61867 13.4284 4.61867ZM15.2551 6.89333C15.6977 6.89333 16.2324 6.98 16.8764 7.42533C17.2671 7.692 17.5737 7.784 18.2791 8.04933H18.2831C18.6231 8.23067 18.8231 8.404 18.9204 8.58133V8.40667C18.9682 8.50362 18.9949 8.60965 18.9986 8.7177C19.0022 8.82575 18.9829 8.93335 18.9417 9.03333C18.7777 9.44667 18.2537 9.89067 17.5244 10.156V10.1587C17.1671 10.3387 16.8564 10.6027 16.4911 10.7787C16.1231 10.9587 15.7071 11.168 15.1417 11.1347C14.9386 11.1452 14.7355 11.1148 14.5444 11.0453C14.3967 10.965 14.2534 10.8769 14.1151 10.7813C13.8551 10.6013 13.6311 10.3387 13.2991 10.1613V10.1547H13.2924C12.7591 9.82667 12.4711 9.472 12.3777 9.208C12.2844 8.85067 12.3711 8.58133 12.6351 8.408C12.9337 8.228 13.1417 8.04667 13.2791 7.96C13.4177 7.86133 13.4697 7.824 13.5137 7.78533H13.5164V7.78133C13.7417 7.512 14.0977 7.15467 14.6351 6.98C14.8204 6.932 15.0271 6.89333 15.2564 6.89333H15.2551ZM18.9884 9.74933C19.4657 11.6387 20.5831 14.3827 21.3017 15.7133C21.6831 16.4253 22.4417 17.9253 22.7711 19.7453C22.9791 19.7387 23.2111 19.7693 23.4551 19.8307C24.3164 17.6027 22.7271 15.208 22.0031 14.5427C21.7097 14.276 21.6937 14.096 21.8391 14.096C22.6257 14.808 23.6591 16.192 24.0337 17.772C24.2071 18.4853 24.2471 19.244 24.0617 19.9987C24.1511 20.036 24.2417 20.0787 24.3351 20.088C25.7111 20.8 26.2191 21.3387 25.9751 22.1373V22.08C25.8951 22.076 25.8151 22.08 25.7351 22.08H25.7137C25.9151 21.4573 25.4711 20.98 24.2937 20.448C23.0737 19.9147 22.0991 20 21.9337 21.068C21.9231 21.1253 21.9164 21.156 21.9097 21.248C21.8191 21.2787 21.7244 21.3187 21.6311 21.3333C21.0577 21.6907 20.7484 22.2253 20.5737 22.916C20.4004 23.6267 20.3471 24.4573 20.3004 25.408V25.412C20.2737 25.8573 20.0737 26.5293 19.8751 27.212C17.8751 28.6413 15.1017 29.2627 12.7444 27.6573C12.5965 27.3988 12.4164 27.16 12.2084 26.9467C12.109 26.7812 11.9854 26.6315 11.8417 26.5027C12.0844 26.5027 12.2924 26.4627 12.4617 26.4133C12.6535 26.3244 12.8034 26.1649 12.8804 25.968C13.0244 25.612 12.8804 25.0387 12.4204 24.4173C11.9604 23.7947 11.1791 23.0907 10.0364 22.3893C9.19639 21.856 8.72172 21.2293 8.50306 20.528C8.28306 19.816 8.31239 19.0813 8.48306 18.3347C8.80973 16.908 9.64706 15.5213 10.1817 14.6507C10.3244 14.564 10.2311 14.8307 9.63773 15.9493C9.10973 16.9507 8.11772 19.2787 9.47506 21.088C9.52633 19.7679 9.8187 18.4682 10.3377 17.2533C11.0897 15.5493 12.6617 12.5813 12.7857 10.2293C12.8497 10.2773 13.0751 10.4093 13.1711 10.4987C13.4617 10.676 13.6777 10.9427 13.9577 11.1187C14.2377 11.3867 14.5937 11.5653 15.1257 11.5653C15.1777 11.5693 15.2257 11.5733 15.2724 11.5733C15.8217 11.5733 16.2457 11.3947 16.6017 11.216C16.9884 11.0373 17.2951 10.7707 17.5884 10.6827H17.5951C18.2177 10.5027 18.7084 10.1467 18.9871 9.74933H18.9884ZM21.9017 21.6933C21.9511 22.4933 22.3591 23.3533 23.0777 23.5293C23.8617 23.708 24.9897 23.0853 25.4657 22.5093L25.7471 22.496C26.1671 22.4867 26.5164 22.5093 26.8764 22.8533L26.8804 22.8573C27.1577 23.1227 27.2871 23.564 27.4017 24.0253C27.5151 24.5587 27.6071 25.0653 27.9471 25.4467C28.5951 26.1493 28.8071 26.6547 28.7951 26.9667L28.7991 26.9573V26.9813L28.7951 26.9667C28.7751 27.316 28.5484 27.4933 28.1311 27.7587C27.2911 28.2933 25.8031 28.708 24.8551 29.852C24.0311 30.8347 23.0284 31.372 22.1404 31.44C21.2551 31.5107 20.4911 31.1733 20.0417 30.2427L20.0351 30.2387C19.7551 29.7053 19.8751 28.872 20.1097 27.9853C20.3444 27.0947 20.6804 26.1933 20.7271 25.456C20.7764 24.504 20.8284 23.676 20.9871 23.0373C21.1471 22.4173 21.3977 21.9747 21.8417 21.7253L21.9017 21.696V21.6933ZM7.48306 21.7587H7.49639C7.56706 21.7587 7.63639 21.7653 7.70572 21.7773C8.20706 21.8507 8.64706 22.2213 9.06973 22.78L10.2831 24.9987L10.2871 25.0027C10.6111 25.7133 11.2924 26.4213 11.8724 27.1853C12.4511 27.9827 12.8991 28.6933 12.8444 29.2787V29.2867C12.7684 30.2787 12.2044 30.8173 11.3444 31.012C10.4844 31.192 9.31773 31.0147 8.15106 30.3933C6.86039 29.6787 5.32706 29.768 4.34173 29.5907C3.84973 29.5027 3.52839 29.324 3.37772 29.0573C3.23106 28.7907 3.22706 28.2547 3.54172 27.4173V27.412L3.54439 27.408C3.70039 26.9627 3.58439 26.4053 3.50839 25.9173C3.43506 25.3827 3.39773 24.9707 3.56573 24.664C3.77906 24.2187 4.09373 24.1307 4.48573 23.9533C4.87773 23.7733 5.33906 23.684 5.70572 23.3267H5.70839V23.324C6.04973 22.9667 6.30172 22.5227 6.59906 22.2067C6.85239 21.9387 7.10573 21.7587 7.48306 21.7587ZM17.0284 9.66C16.4484 9.928 15.7684 10.3733 15.0444 10.3733C14.3217 10.3733 13.7511 10.0173 13.3377 9.752C13.1324 9.57333 12.9644 9.39467 12.8404 9.30533C12.6217 9.12667 12.6484 8.86133 12.7417 8.86133C12.8871 8.88267 12.9137 9.04 13.0071 9.128C13.1351 9.216 13.2937 9.39467 13.4871 9.572C13.8764 9.83867 14.3937 10.1947 15.0431 10.1947C15.6897 10.1947 16.4471 9.83867 16.9071 9.57333C17.1671 9.39333 17.5004 9.128 17.7711 8.95067C17.9791 8.76933 17.9697 8.59467 18.1431 8.59467C18.3137 8.616 18.1884 8.77333 17.9471 9.03733C17.6513 9.26099 17.3442 9.46927 17.0271 9.66133L17.0284 9.66ZM15.5857 7.54933V7.52C15.5777 7.49333 15.6031 7.464 15.6244 7.45333C15.7231 7.396 15.8644 7.41733 15.9711 7.45867C16.0551 7.45867 16.1844 7.548 16.1711 7.63867C16.1631 7.704 16.0577 7.72667 15.9911 7.72667C15.9177 7.72667 15.8684 7.66933 15.8031 7.636C15.7337 7.612 15.6084 7.62533 15.5857 7.54933ZM14.8511 7.54933C14.8244 7.62667 14.7004 7.61467 14.6297 7.63733C14.5671 7.67067 14.5151 7.728 14.4431 7.728C14.3764 7.728 14.2697 7.70133 14.2617 7.63733C14.2484 7.54933 14.3791 7.46 14.4617 7.46C14.5684 7.41867 14.7071 7.39733 14.8071 7.45333C14.8324 7.46533 14.8551 7.49333 14.8471 7.52V7.54667H14.8511V7.54933Z" fill="white"/>
</svg>
