<svg width="32" height="32" viewBox="0 0 32 32" fill="none" xmlns="http://www.w3.org/2000/svg">
<g clip-path="url(#clip0_515_7154)">
<path d="M16.0413 8H8.04133V24H24.036V16L16.0413 23.9947V8ZM24.792 11.0787C24.0677 10.8103 23.4101 10.3883 22.8644 9.84166C22.3187 9.29503 21.8978 8.63673 21.6307 7.912C21.3616 8.63651 20.9394 9.29446 20.393 9.84096C19.8465 10.3874 19.1885 10.8096 18.464 11.0787C19.1881 11.3485 19.8456 11.7709 20.392 12.3173C20.9384 12.8637 21.3608 13.5213 21.6307 14.2453C21.8977 13.5207 22.3184 12.8625 22.8638 12.3159C23.4093 11.7693 24.068 11.3472 24.792 11.0787ZM0 12.8027C0 8.31733 0 6.07867 0.869333 4.36933C1.63995 2.86439 2.86439 1.63995 4.36933 0.869333C6.08 0 8.31733 0 12.8027 0H19.1973C23.6827 0 25.9213 0 27.6307 0.869333C29.1356 1.63995 30.3601 2.86439 31.1307 4.36933C32 6.08 32 8.31733 32 12.8027V19.1973C32 23.6827 32 25.9213 31.1307 27.6307C30.3601 29.1356 29.1356 30.3601 27.6307 31.1307C25.92 32 23.6827 32 19.1973 32H12.8027C8.31733 32 6.07867 32 4.36933 31.1307C2.86439 30.3601 1.63995 29.1356 0.869333 27.6307C0 25.92 0 23.6827 0 19.1973V12.8027Z" fill="white"/>
</g>
<defs>
<clipPath id="clip0_515_7154">
<rect width="32" height="32" fill="white"/>
</clipPath>
</defs>
</svg>
