<svg width="32" height="32" viewBox="0 0 32 32" fill="none" xmlns="http://www.w3.org/2000/svg">
<g clip-path="url(#clip0_515_7035)">
<path d="M15.9996 29.3596C14.8206 29.3596 13.8406 28.4907 13.6666 27.3596H4.99965V26.6396H13.6666C13.8226 25.6256 14.6256 24.8236 15.6396 24.6666V23.3596H4.99965C4.80065 23.3596 4.63965 23.1986 4.63965 22.9996V17.9996C4.63965 17.8006 4.80065 17.6396 4.99965 17.6396H26.9996C27.1986 17.6396 27.3596 17.8006 27.3596 17.9996V22.9996C27.3596 23.1986 27.1986 23.3596 26.9996 23.3596H16.3596V24.6666C17.3736 24.8226 18.1766 25.6256 18.3326 26.6396H26.9996V27.3606H18.3326C18.1586 28.4906 17.1786 29.3596 15.9996 29.3596ZM15.9996 25.3596C15.0956 25.3596 14.3596 26.0946 14.3596 26.9996C14.3596 27.9046 15.0956 28.6396 15.9996 28.6396C16.9036 28.6396 17.6396 27.9046 17.6396 26.9996C17.6396 26.0946 16.9036 25.3596 15.9996 25.3596ZM5.35965 22.6396H26.6396V18.3596H5.35965V22.6396ZM24.9996 20.3596H18.9996V19.6396H24.9996V20.3596ZM11.9996 20.3596H10.9996V19.6396H11.9996V20.3596ZM9.99965 20.3596H8.99965V19.6396H9.99965V20.3596ZM7.99965 20.3596H6.99965V19.6396H7.99965V20.3596ZM26.9996 16.3596H4.99965C4.80065 16.3596 4.63965 16.1986 4.63965 15.9996V10.9996C4.63965 10.8006 4.80065 10.6396 4.99965 10.6396H26.9996C27.1986 10.6396 27.3596 10.8006 27.3596 10.9996V15.9996C27.3596 16.1986 27.1986 16.3596 26.9996 16.3596ZM5.35965 15.6396H26.6396V11.3596H5.35965V15.6396ZM24.9996 13.3596H18.9996V12.6396H24.9996V13.3596ZM11.9996 13.3596H10.9996V12.6396H11.9996V13.3596ZM9.99965 13.3596H8.99965V12.6396H9.99965V13.3596ZM7.99965 13.3596H6.99965V12.6396H7.99965V13.3596ZM26.9996 9.35965H4.99965C4.80065 9.35965 4.63965 9.19865 4.63965 8.99965V3.99965C4.63965 3.80065 4.80065 3.63965 4.99965 3.63965H26.9996C27.1986 3.63965 27.3596 3.80065 27.3596 3.99965V8.99965C27.3596 9.19865 27.1986 9.35965 26.9996 9.35965ZM5.35965 8.63965H26.6396V4.35965H5.35965V8.63965ZM24.9996 6.35965H18.9996V5.63965H24.9996V6.35965ZM11.9996 6.35965H10.9996V5.63965H11.9996V6.35965ZM9.99965 6.35965H8.99965V5.63965H9.99965V6.35965ZM7.99965 6.35965H6.99965V5.63965H7.99965V6.35965Z" fill="white"/>
</g>
<defs>
<clipPath id="clip0_515_7035">
<rect width="32" height="32" fill="white"/>
</clipPath>
</defs>
</svg>
