<svg width="32" height="32" viewBox="0 0 32 32" fill="none" xmlns="http://www.w3.org/2000/svg">
<g clip-path="url(#clip0_515_7126)">
<path d="M15.9972 32.0003C15.5692 32.0003 15.1425 31.8883 14.7679 31.671L10.8532 29.355C10.2692 29.0283 10.5545 28.9123 10.7465 28.8443C11.5265 28.5737 11.6839 28.511 12.5172 28.039C12.6039 27.9897 12.7185 28.0083 12.8079 28.0617L15.8159 29.847C15.9252 29.907 16.0785 29.907 16.1785 29.847L27.9052 23.079C28.0145 23.0163 28.0839 22.891 28.0839 22.7617V9.22833C28.0839 9.09633 28.0132 8.97233 27.9012 8.90567L16.1799 2.143C16.0719 2.08033 15.9279 2.08033 15.8185 2.143L4.09988 8.907C3.98655 8.97233 3.91455 9.10033 3.91455 9.22833V22.7617C3.91455 22.891 3.98655 23.0137 4.09988 23.075L7.31188 24.931C9.05455 25.803 10.1225 24.7763 10.1225 23.7443V10.383C10.1225 10.1937 10.2745 10.0457 10.4639 10.0457H11.9505C12.1359 10.0457 12.2905 10.195 12.2905 10.383V23.7443C12.2905 26.071 11.0239 27.4043 8.81855 27.4043C8.14121 27.4043 7.60655 27.4043 6.11721 26.6697L3.03988 24.9003C2.27988 24.4617 1.81055 23.6403 1.81055 22.7617V9.22833C1.81055 8.34967 2.28121 7.52833 3.03988 7.091L14.7665 0.315C15.5092 -0.105 16.4945 -0.105 17.2305 0.315L28.9559 7.091C29.7159 7.52967 30.1879 8.34967 30.1879 9.22833V22.7617C30.1879 23.6403 29.7159 24.459 28.9559 24.9003L17.2305 31.671C16.8572 31.8883 16.4319 32.0003 15.9972 32.0003ZM25.4652 18.6577C25.4652 16.1243 23.7532 15.4497 20.1492 14.9737C16.5079 14.4923 16.1372 14.243 16.1372 13.391C16.1372 12.687 16.4505 11.747 19.1479 11.747C21.5572 11.747 22.4452 12.2657 22.8105 13.8897C22.8425 14.043 22.9825 14.155 23.1399 14.155H24.6612C24.7559 14.155 24.8452 14.1137 24.9092 14.047C24.9732 13.975 25.0079 13.883 24.9985 13.7857C24.7625 10.9883 22.9039 9.68433 19.1479 9.68433C15.8039 9.68433 13.8092 11.095 13.8092 13.4617C13.8092 16.0283 15.7932 16.7377 19.0025 17.055C22.8425 17.431 23.1399 17.9923 23.1399 18.747C23.1399 20.0577 22.0879 20.6163 19.6172 20.6163C16.5145 20.6163 15.8319 19.8377 15.6025 18.2937C15.5759 18.1283 15.4345 18.007 15.2652 18.007H13.7492C13.5612 18.007 13.4105 18.1563 13.4105 18.3443C13.4105 20.3203 14.4852 22.675 19.6172 22.675C23.3345 22.6763 25.4652 21.2137 25.4652 18.6577Z" fill="white"/>
</g>
<defs>
<clipPath id="clip0_515_7126">
<rect width="32" height="32" fill="white"/>
</clipPath>
</defs>
</svg>
