<svg width="32" height="32" viewBox="0 0 32 32" fill="none" xmlns="http://www.w3.org/2000/svg">
<g clip-path="url(#clip0_515_7053)">
<path d="M13.8143 16.5908H15.937L14.8276 14.7855L12.7676 18.0482H11.817L14.321 14.1202C14.3863 14.0562 14.4596 13.9988 14.537 13.9495L14.5423 13.9468C14.621 13.8975 14.717 13.8682 14.8196 13.8682H14.8276C14.9223 13.8695 15.0103 13.8988 15.0836 13.9482L15.0823 13.9468C15.1663 13.9988 15.2383 14.0562 15.3036 14.1202L17.8076 18.0482H16.857L16.413 17.3202H14.2903L13.8143 16.5908ZM23.509 17.3202V13.9308H22.717V17.6375V17.6495C22.717 17.7028 22.729 17.7535 22.7503 17.7988L22.749 17.7962C22.7743 17.8455 22.8063 17.8868 22.8436 17.9228C22.8663 17.9668 22.9036 18.0002 22.949 18.0175C22.9996 18.0375 23.0583 18.0495 23.1196 18.0495H23.1236H26.7356L27.1796 17.3215L23.509 17.3202ZM10.4236 16.6855H10.4436C10.8183 16.6855 11.1583 16.5348 11.4063 16.2895C11.6596 16.0535 11.8183 15.7175 11.8183 15.3442C11.8183 15.3362 11.8183 15.3295 11.8183 15.3215C11.8183 15.3108 11.8183 15.2988 11.8183 15.2855C11.8183 14.9082 11.6596 14.5668 11.4063 14.3255C11.1596 14.0802 10.8196 13.9295 10.4436 13.9295C10.437 13.9295 10.429 13.9295 10.4223 13.9295H6.93698V18.0482H7.73298V14.6588H10.3623H10.3823C10.561 14.6588 10.721 14.7322 10.837 14.8495C10.9543 14.9655 11.0276 15.1268 11.0276 15.3042V15.3255V15.3242C11.0263 15.5028 10.9543 15.6655 10.8383 15.7842C10.725 15.9108 10.5596 15.9908 10.377 15.9908C10.3716 15.9908 10.3663 15.9908 10.3623 15.9908H8.11031L10.4863 18.0508H11.6263L10.041 16.6882L10.4236 16.6855ZM2.05831 18.0482C2.05564 18.0482 2.05164 18.0482 2.04764 18.0482C1.48764 18.0482 0.980977 17.8175 0.61831 17.4468C0.236977 17.0882 0.000976562 16.5815 0.000976562 16.0188C0.000976562 16.0082 0.000976562 15.9975 0.000976562 15.9868V15.9882C0.000976562 15.9802 0.000976562 15.9695 0.000976562 15.9588C0.000976562 15.3962 0.23831 14.8895 0.61831 14.5322L0.619643 14.5308C0.983643 14.1588 1.49031 13.9295 2.05031 13.9295H2.06098H4.46898H4.50231C5.06098 13.9295 5.56498 14.1602 5.92631 14.5308C6.29831 14.8922 6.52764 15.3962 6.52764 15.9548V15.9895V16.0188C6.52764 16.5788 6.29564 17.0842 5.92364 17.4455C5.56231 17.8175 5.05831 18.0468 4.49964 18.0468C4.48764 18.0468 4.47564 18.0468 4.46498 18.0468L2.05831 18.0482ZM4.40498 17.3202H4.43698C4.79831 17.3202 5.12498 17.1682 5.35431 16.9242C5.58898 16.6882 5.73431 16.3628 5.73431 16.0042C5.73431 15.9988 5.73431 15.9935 5.73431 15.9895V15.9908C5.73431 15.9802 5.73431 15.9668 5.73431 15.9548C5.73431 15.5975 5.58898 15.2735 5.35431 15.0402C5.12098 14.8055 4.79698 14.6602 4.43964 14.6602C4.42764 14.6602 4.41431 14.6602 4.40231 14.6602H2.12098C2.11698 14.6602 2.11164 14.6602 2.10631 14.6602C1.74764 14.6602 1.42231 14.8055 1.18631 15.0402C0.94231 15.2708 0.79031 15.5975 0.79031 15.9588V15.9922V15.9908V16.0002C0.79031 16.3642 0.94231 16.6922 1.18498 16.9255C1.41831 17.1695 1.74631 17.3215 2.11031 17.3215H2.11964L4.40498 17.3202ZM19.4543 18.0482C19.445 18.0482 19.433 18.0482 19.421 18.0482C18.8623 18.0482 18.3583 17.8175 17.997 17.4468C17.625 17.0855 17.3956 16.5815 17.3956 16.0228C17.3956 16.0108 17.3956 15.9988 17.3956 15.9882C17.3956 15.9788 17.3956 15.9682 17.3956 15.9562C17.3956 15.3975 17.6263 14.8935 17.997 14.5322C18.3583 14.1602 18.8623 13.9308 19.421 13.9308H19.4556H19.4543H22.305L21.829 14.6588H19.4823C19.4783 14.6588 19.473 14.6588 19.4676 14.6588C19.109 14.6588 18.7836 14.8042 18.5476 15.0388C18.3036 15.2695 18.1516 15.5962 18.1516 15.9575V15.9908V15.9895V15.9988C18.1516 16.3628 18.3036 16.6908 18.5463 16.9242C18.7796 17.1682 19.1076 17.3202 19.4716 17.3202H19.481H22.361L21.885 18.0482H19.4543ZM29.117 17.3202C29.1143 17.3202 29.1103 17.3202 29.1063 17.3202C28.8076 17.3202 28.5343 17.2122 28.3223 17.0335L28.3236 17.0348C28.1023 16.8575 27.937 16.6215 27.8503 16.3482L27.8476 16.3375H31.237L31.681 15.6095H27.8476C27.9343 15.3322 28.0983 15.1015 28.3156 14.9348L28.3183 14.9322C28.5303 14.7642 28.8023 14.6628 29.097 14.6628H29.1116H31.457L31.933 13.9348H29.0823C29.073 13.9348 29.061 13.9348 29.049 13.9348C28.4903 13.9348 27.9863 14.1655 27.625 14.5362C27.253 14.8975 27.0236 15.4015 27.0236 15.9602V15.9948V15.9935V16.0268C27.0236 16.5855 27.2543 17.0895 27.625 17.4508C27.9863 17.8228 28.4903 18.0522 29.049 18.0522H29.0836H31.5183L31.9943 17.3242L29.117 17.3202Z" fill="white"/>
</g>
<defs>
<clipPath id="clip0_515_7053">
<rect width="32" height="32" fill="white"/>
</clipPath>
</defs>
</svg>
