<svg width="32" height="32" viewBox="0 0 32 32" fill="none" xmlns="http://www.w3.org/2000/svg">
<g clip-path="url(#clip0_515_7103)">
<path d="M16.1575 7.28821C15.877 7.28571 15.5976 7.3216 15.3268 7.39487C14.9562 7.48421 14.3908 7.83754 14.0562 8.17221C13.5095 8.73621 13.4028 8.98421 13.1735 10.1309C13.0668 10.6949 13.7202 12.0375 14.3028 12.4429C14.9028 12.8655 15.7495 13.1122 17.0562 13.2535C18.9615 13.4669 19.5095 14.1015 19.5095 16.1829C19.5095 18.0189 18.9962 18.5122 16.8962 18.7242C14.6202 18.9535 13.4562 19.8362 13.2095 21.5469C13.0682 22.5882 13.7562 23.8935 14.7095 24.3349C16.8788 25.3589 18.9095 24.0709 19.3322 21.4069C19.6135 19.6949 20.1615 19.2175 21.9962 19.0775C24.1135 18.9002 25.2082 18.1775 25.6135 16.6949C25.9842 15.3349 25.2082 13.8189 23.8842 13.2895C23.5322 13.1482 22.7202 12.9722 22.0842 12.9015C20.0908 12.6882 19.5788 12.3362 19.3668 11.0482C19.0668 9.26554 18.9442 8.96554 18.3082 8.26154C18.038 7.9575 17.7069 7.71371 17.3364 7.54602C16.9659 7.37833 16.5642 7.29049 16.1575 7.28821ZM9.7775 13.1015C9.55487 13.097 9.33247 13.1185 9.11483 13.1655C7.15616 13.5895 6.2215 15.9002 7.31483 17.5589C8.8855 19.9242 12.5735 18.8295 12.6082 15.9895C12.6242 14.3989 11.3015 13.1322 9.7775 13.1015ZM2.7855 18.9202C2.59392 18.9248 2.40325 18.9481 2.21616 18.9895C-0.661169 19.6242 -0.766503 23.8242 2.07483 24.5655C2.7815 24.7589 2.85083 24.7589 3.55616 24.5829C5.14416 24.1589 6.04416 22.6415 5.6215 21.1069C5.25083 19.7469 4.09616 18.8882 2.7855 18.9202ZM29.2175 18.9309C28.9068 18.9335 28.5815 19.0082 28.1722 19.1469C26.3188 19.7829 25.6842 21.9362 26.8655 23.5949C27.6082 24.6535 29.4788 25.0055 30.6255 24.2829C32.5135 23.1175 32.4428 20.2069 30.5015 19.2882C29.9948 19.0402 29.6175 18.9269 29.2175 18.9309Z" fill="white"/>
</g>
<defs>
<clipPath id="clip0_515_7103">
<rect width="32" height="32" fill="white"/>
</clipPath>
</defs>
</svg>
