<svg width="32" height="32" viewBox="0 0 32 32" fill="none" xmlns="http://www.w3.org/2000/svg">
<g clip-path="url(#clip0_515_7055)">
<path d="M16.1183 23.3613C14.9443 23.3613 14.2667 24.5136 14.2667 25.936C14.2551 27.3815 14.9554 28.4885 16.1073 28.4885C17.2703 28.4885 17.948 27.3929 17.948 25.9027C17.948 24.5136 17.293 23.3613 16.1183 23.3613Z" fill="white"/>
<path d="M27.6021 7.66837C27.6003 7.52161 27.5537 7.37666 27.4529 7.26209L21.2828 0.214611C21.2816 0.212636 21.2792 0.211997 21.2779 0.210196C21.2412 0.169121 21.1989 0.13525 21.1536 0.105388C21.1401 0.0966737 21.126 0.0888306 21.1119 0.0808713C21.0726 0.0596077 21.0316 0.0419462 20.9881 0.0290486C20.9771 0.025679 20.966 0.020915 20.9544 0.0178939C20.9079 0.00662308 20.8595 0 20.811 0H5.64748C4.95566 0 4.39258 0.563136 4.39258 1.25496V30.7451C4.39258 31.4372 4.95566 32.0001 5.64748 32.0001H26.3533C27.0451 32.0001 27.6083 31.4372 27.6083 30.7451V7.73866C27.6082 7.71508 27.6046 7.69195 27.6021 7.66837ZM8.56291 29.844C7.69296 29.844 6.83499 29.6179 6.40605 29.3805L6.75591 27.9579C7.21854 28.1951 7.93041 28.4322 8.664 28.4322C9.45488 28.4322 9.87236 28.1044 9.87236 27.6075C9.87236 27.1329 9.51158 26.8624 8.59678 26.5352C7.33224 26.0947 6.50749 25.3939 6.50749 24.2876C6.50749 22.9889 7.59205 21.995 9.38737 21.995C10.2458 21.995 10.8782 22.1758 11.3296 22.3792L10.9454 23.768C10.6408 23.6215 10.0987 23.4074 9.35356 23.4074C8.60782 23.4074 8.2471 23.7456 8.2471 24.1411C8.2471 24.6267 8.67585 24.8412 9.65822 25.2138C11.0018 25.7107 11.6349 26.411 11.6349 27.484C11.6346 28.7595 10.6517 29.844 8.56291 29.844ZM19.3025 31.0404C18.2186 30.7242 17.3153 30.397 16.2988 29.9675C16.1297 29.9001 15.9489 29.8661 15.7681 29.855C14.0518 29.7425 12.4485 28.4772 12.4485 25.9926C12.4485 23.7116 13.8937 21.995 16.1633 21.995C18.4899 21.995 19.7657 23.7566 19.7657 25.8345C19.7657 27.5624 18.9642 28.7821 17.9586 29.2334V29.279C18.5463 29.4488 19.2013 29.5842 19.7994 29.7077L19.3025 31.0404ZM25.6499 29.731H20.8956V22.1198H22.6235V28.2852H25.6499V29.731ZM5.64748 21.3073V1.25496H20.1836V7.67557C20.1836 8.02189 20.4642 8.30302 20.811 8.30302H26.3533L26.354 21.3073H5.64748Z" fill="white"/>
<path d="M19.4115 9.94434C19.4391 9.86835 19.4587 9.79056 19.4587 9.70829C19.4587 8.69821 17.2761 8.15332 15.222 8.15332C13.17 8.15332 10.988 8.69821 10.988 9.70829C10.988 9.79056 11.0071 9.8687 11.035 9.94498L11.0241 9.96444C10.9302 10.1348 10.8838 10.3066 10.8838 10.4758V11.7256C10.8838 11.918 10.9443 12.1028 11.0517 12.2774L11.0376 12.3013C10.9353 12.4788 10.8838 12.6586 10.8838 12.8362V14.0858C10.8838 14.2722 10.941 14.451 11.0425 14.6208L11.0376 14.6285C10.9353 14.8058 10.8838 14.986 10.8838 15.1632V16.4128C10.8838 17.5238 12.7895 18.3935 15.2221 18.3935C17.6573 18.3935 19.5629 17.5238 19.5629 16.4128V15.1632C19.5629 14.9856 19.5115 14.8052 19.4079 14.6282L19.4036 14.6213C19.5044 14.4513 19.5629 14.2725 19.5629 14.0858V12.8362C19.5629 12.6584 19.5115 12.478 19.4079 12.3007L19.3944 12.2777C19.5017 12.1028 19.5629 11.9183 19.5629 11.7253V10.4755C19.5629 10.3063 19.5158 10.134 19.4226 9.96363L19.4115 9.94434ZM19.0979 16.4128C19.0979 17.1303 17.5072 17.9287 15.2221 17.9287C12.9392 17.9287 11.3482 17.1303 11.3482 16.4128V15.2374C12.0606 15.89 13.5263 16.3062 15.2221 16.3062C16.9201 16.3062 18.3858 15.8897 19.0979 15.2368V16.4128ZM19.0979 14.0857C19.0979 14.8027 17.5072 15.6017 15.2221 15.6017C12.9392 15.6017 11.3482 14.8027 11.3482 14.0857V12.9102C12.0606 13.5625 13.5263 13.9791 15.2221 13.9791C16.9201 13.9791 18.3858 13.5624 19.0979 12.9096V14.0857ZM19.0979 11.7253C19.0979 12.4422 17.5072 13.2412 15.2221 13.2412C12.9392 13.2412 11.3482 12.4425 11.3482 11.7253V10.6853C12.0444 11.2753 13.6588 11.5813 15.2221 11.5813C16.7875 11.5813 18.4012 11.2753 19.0979 10.6853V11.7253Z" fill="white"/>
</g>
<defs>
<clipPath id="clip0_515_7055">
<rect width="32" height="32" fill="white"/>
</clipPath>
</defs>
</svg>
