<svg width="32" height="32" viewBox="0 0 32 32" fill="none" xmlns="http://www.w3.org/2000/svg">
<g clip-path="url(#clip0_515_7025)">
<path d="M28.444 4.44434H3.55512C3.08363 4.44434 2.63144 4.63164 2.29804 4.96503C1.96464 5.29843 1.77734 5.75062 1.77734 6.22211V25.7777C1.77734 26.2492 1.96464 26.7014 2.29804 27.0347C2.63144 27.3681 3.08363 27.5554 3.55512 27.5554H28.444C28.9155 27.5554 29.3677 27.3681 29.7011 27.0347C30.0345 26.7014 30.2218 26.2492 30.2218 25.7777V6.22211C30.2218 5.75062 30.0345 5.29843 29.7011 4.96503C29.3677 4.63164 28.9155 4.44434 28.444 4.44434ZM3.55512 6.22211H28.444V8.17767H3.55512V6.22211ZM3.55512 25.7777V9.59989H28.444V25.7777H3.55512Z" fill="white"/>
<path d="M20.4447 20.4443H15.1113V22.2221H20.4447V20.4443Z" fill="white"/>
<path d="M6.22266 13.938L12.2582 16.7113L6.22266 19.4758V21.4313L14.756 17.5113V15.9024L6.22266 11.9824V13.938Z" fill="white"/>
</g>
<defs>
<clipPath id="clip0_515_7025">
<rect width="32" height="32" fill="white"/>
</clipPath>
</defs>
</svg>
