<svg width="32" height="32" viewBox="0 0 32 32" fill="none" xmlns="http://www.w3.org/2000/svg">
<g clip-path="url(#clip0_515_7023)">
<path d="M0 2.34411L6.90933 26.6668C7.08133 27.2734 7.24267 27.5881 7.47067 27.9268C7.55467 28.0494 7.644 28.1654 7.74 28.2788C7.97067 28.5508 8.23333 28.7828 8.52667 28.9788C8.85067 29.1961 9.18 29.3601 9.544 29.4734C9.976 29.6068 10.3573 29.6561 10.864 29.6561H16.6333L19.1907 20.8361H28.2547V25.7681C28.2547 25.8068 28.2394 25.8439 28.2122 25.8713C28.185 25.8988 28.148 25.9144 28.1093 25.9148H21.6027L20.5187 29.6561H28.0573C29.0133 29.664 29.9387 29.3199 30.6573 28.6894C31.0844 28.3212 31.4259 27.864 31.6578 27.3499C31.8897 26.8359 32.0065 26.2774 32 25.7134V17.0868H16.3733L13.8147 25.9054H10.5827L4.95333 6.08544H8.84933L10.9107 13.3441H14.8L11.676 2.34411H0ZM20.6613 2.34411L17.4613 13.3441H32V6.29077C32.0016 5.50918 31.7712 4.74471 31.338 4.09413C30.9048 3.44355 30.2884 2.93613 29.5667 2.63611C29.0881 2.44355 28.5772 2.344 28.0613 2.34277L20.6613 2.34411ZM23.4747 6.08544H28.1093C28.1288 6.08544 28.1481 6.08932 28.1661 6.09685C28.1841 6.10439 28.2003 6.11543 28.214 6.12934C28.2276 6.14324 28.2384 6.15972 28.2456 6.17783C28.2528 6.19593 28.2564 6.21529 28.256 6.23477V9.60011H22.4507L23.4747 6.08544Z" fill="white"/>
</g>
<defs>
<clipPath id="clip0_515_7023">
<rect width="32" height="32" fill="white"/>
</clipPath>
</defs>
</svg>
