<svg width="32" height="32" viewBox="0 0 32 32" fill="none" xmlns="http://www.w3.org/2000/svg">
<g clip-path="url(#clip0_515_7122)">
<path d="M11.0484 14.1036L11.7311 2.56098C11.7365 2.47066 11.7718 2.38471 11.8315 2.31664C11.8911 2.24858 11.9716 2.20226 12.0604 2.18498L23.1698 0.00764686C23.2384 -0.0058269 23.3093 -0.001442 23.3757 0.0203808C23.4422 0.0422036 23.5019 0.080732 23.5491 0.132269C23.5964 0.183806 23.6296 0.246622 23.6456 0.31469C23.6616 0.382758 23.6598 0.453793 23.6404 0.52098L21.5631 7.72498C21.5438 7.79204 21.5421 7.86292 21.558 7.93085C21.574 7.99879 21.607 8.0615 21.6541 8.11299C21.7012 8.16449 21.7607 8.20305 21.8269 8.22499C21.8932 8.24693 21.9639 8.25152 22.0324 8.23831L25.2164 7.62498C25.2914 7.61033 25.3689 7.61699 25.4402 7.64421C25.5115 7.67142 25.5738 7.7181 25.6199 7.77894C25.666 7.83977 25.6941 7.91232 25.7011 7.98835C25.708 8.06437 25.6935 8.14081 25.6591 8.20898L16.6058 26.2756L16.4418 26.529C16.4065 26.5863 16.3571 26.6336 16.2982 26.6663C16.2394 26.699 16.1731 26.716 16.1058 26.7156C15.8698 26.7156 15.6391 26.513 15.6991 26.2236L17.1591 19.1556C17.1734 19.0864 17.1695 19.0146 17.1478 18.9474C17.126 18.8801 17.0872 18.8196 17.035 18.7719C16.9828 18.7242 16.9192 18.6908 16.8502 18.6751C16.7813 18.6594 16.7095 18.6619 16.6418 18.6823L14.7311 19.2623C14.6635 19.2829 14.5916 19.2856 14.5226 19.2701C14.4536 19.2546 14.3899 19.2214 14.3376 19.1738C14.2853 19.1262 14.2462 19.0658 14.2243 18.9986C14.2024 18.9314 14.1983 18.8596 14.2124 18.7903L15.1324 14.2903C15.1464 14.2231 15.1432 14.1535 15.1231 14.0879C15.103 14.0223 15.0667 13.9628 15.0175 13.9149C14.9683 13.8671 14.9079 13.8324 14.8417 13.8141C14.7756 13.7958 14.7059 13.7945 14.6391 13.8103L11.5458 14.525C11.484 14.5392 11.4199 14.5388 11.3583 14.5239C11.2967 14.5089 11.2395 14.4799 11.1911 14.439C11.1427 14.3981 11.1045 14.3465 11.0795 14.2883C11.0545 14.2301 11.0434 14.1669 11.0471 14.1036H11.0484ZM31.0164 3.53565L23.0458 4.98631L22.3204 7.50231L25.0898 6.96898C25.3044 6.9262 25.527 6.95046 25.7273 7.03847C25.9277 7.12648 26.0961 7.27399 26.2098 7.46098C26.3063 7.61649 26.3611 7.79421 26.369 7.97705C26.377 8.15989 26.3378 8.34169 26.2551 8.50498L17.2004 26.573L17.1831 26.6063L17.1631 26.637L17.0004 26.8903C16.9043 27.0409 16.7719 27.165 16.6153 27.2512C16.4588 27.3374 16.2831 27.3829 16.1044 27.3836C15.9426 27.3828 15.783 27.3462 15.6369 27.2766C15.4908 27.207 15.3618 27.1061 15.2591 26.981C15.1593 26.8574 15.0883 26.713 15.0514 26.5585C15.0145 26.4039 15.0126 26.243 15.0458 26.0876L16.4178 19.4463L14.9244 19.8996C14.7202 19.9612 14.5023 19.9608 14.2982 19.8987C14.0941 19.8365 13.913 19.7153 13.7778 19.5503C13.6769 19.4272 13.6049 19.2831 13.5668 19.1285C13.5287 18.974 13.5257 18.8129 13.5578 18.657L14.3978 14.5503L11.6951 15.1743C11.5122 15.2162 11.3214 15.2096 11.1418 15.1551C10.9622 15.1006 10.7999 15.0001 10.6711 14.8636C10.5712 14.7568 10.4941 14.6309 10.4444 14.4933C10.3946 14.3558 10.3733 14.2096 10.3818 14.0636L10.9004 5.30365L0.980448 3.53031C0.827606 3.50273 0.670067 3.51934 0.526337 3.57819C0.382608 3.63704 0.258658 3.73568 0.169049 3.86254C0.0794397 3.98939 0.0278934 4.13918 0.0204653 4.29432C0.0130372 4.44945 0.0500358 4.60348 0.127115 4.73831L15.4404 31.5876C15.512 31.7133 15.6156 31.8177 15.7408 31.8902C15.8659 31.9626 16.0081 32.0005 16.1527 32C16.2973 31.9994 16.4391 31.9605 16.5637 31.8871C16.6883 31.8137 16.7912 31.7085 16.8618 31.5823L31.8751 4.73565C31.9504 4.60057 31.9857 4.44689 31.977 4.29251C31.9683 4.13814 31.9159 3.98941 31.8259 3.86366C31.7359 3.73791 31.612 3.64032 31.4687 3.58225C31.3254 3.52417 31.1686 3.50801 31.0164 3.53565Z" fill="white"/>
</g>
<defs>
<clipPath id="clip0_515_7122">
<rect width="32" height="32" fill="white"/>
</clipPath>
</defs>
</svg>
