<svg width="32" height="32" viewBox="0 0 32 32" fill="none" xmlns="http://www.w3.org/2000/svg">
<g clip-path="url(#clip0_515_7092)">
<path d="M15.6413 2.9668L15.628 2.98813H7.49067L0 15.9721L7.49067 28.9535H24.5573L24.6107 29.0335L27.456 24.0535L28.1467 22.8628H28.136L28.1467 22.8441L27.312 21.8441H28.5053L28.5133 21.8308L28.524 21.8441L32 15.9921L28.524 10.1388L28.52 10.1455L28.5053 10.1188H27.2453L28.0853 9.10146L24.6107 3.00813L24.6027 3.02146L24.5707 2.96813H15.64L15.6413 2.9668ZM12.1427 9.0988H20.396L19.6893 10.1175H19.6587L22.856 15.4708H24.0227L23.6533 15.9081L24.1293 16.4881H22.8547L19.6573 21.8415H19.6933L20.3907 22.8601H12.0987L8.112 15.9695L12.1413 9.09613L12.1427 9.0988Z" fill="white"/>
</g>
<defs>
<clipPath id="clip0_515_7092">
<rect width="32" height="32" fill="white"/>
</clipPath>
</defs>
</svg>
