<svg width="32" height="32" viewBox="0 0 32 32" fill="none" xmlns="http://www.w3.org/2000/svg">
<g clip-path="url(#clip0_515_7088)">
<path d="M28.4135 21.5172V7.712C28.4135 7.28938 28.3628 6.97655 28.1101 6.72331L21.6897 0.303448C21.4971 0.110897 21.2301 0 20.957 0H4.94483C4.29049 0 3.58594 0.505379 3.58594 1.61434V21.5172H28.4135ZM20.6894 1.8709C20.6894 1.61821 20.9945 1.49186 21.1732 1.67062L26.7429 7.24028C26.9217 7.41903 26.7953 7.72414 26.5426 7.72414H20.6894V1.8709ZM18.6441 10.3211C18.4284 10.1054 18.4284 9.75669 18.6441 9.54097C18.8599 9.32524 19.2086 9.32524 19.4243 9.54097L22.7346 12.8513C22.9504 13.067 22.9504 13.4157 22.7346 13.6314L19.4243 16.9418C19.3167 17.0494 19.1755 17.1034 19.0342 17.1034C18.893 17.1034 18.7517 17.0494 18.6441 16.9418C18.4284 16.7261 18.4284 16.3774 18.6441 16.1617L21.5644 13.2414L18.6441 10.3211ZM13.5484 17.4714L16.8588 8.09214C16.9608 7.80469 17.2742 7.65352 17.5628 7.75559C17.8502 7.8571 18.0008 8.17214 17.8993 8.45959L14.589 17.8389C14.509 18.0657 14.296 18.2069 14.0687 18.2069C14.008 18.2069 13.9457 18.1964 13.885 18.1749C13.5975 18.0739 13.4469 17.7589 13.5484 17.4714ZM8.71311 12.8513L12.0235 9.54097C12.2392 9.32524 12.5879 9.32524 12.8036 9.54097C13.0193 9.75669 13.0193 10.1054 12.8036 10.3211L9.88332 13.2414L12.8036 16.1617C13.0193 16.3774 13.0193 16.7261 12.8036 16.9418C12.696 17.0494 12.5548 17.1034 12.4135 17.1034C12.2723 17.1034 12.131 17.0494 12.0235 16.9418L8.71311 13.6314C8.49739 13.4157 8.49739 13.067 8.71311 12.8513Z" fill="white"/>
<path d="M3.58594 22.6211V30.897C3.58594 31.4536 4.25904 32.0004 4.94483 32.0004H27.0546C27.7404 32.0004 28.4135 31.4536 28.4135 30.897V22.6211H3.58594ZM12.6541 29.7935H11.6058L10.723 27.6964H10.6475L9.69683 29.7935H8.64856L10.0593 27.0928L8.55808 24.2338H9.59145L10.5719 26.497H10.6475L11.7112 24.2338H12.7446L11.2433 27.0928L12.6541 29.7935ZM19.1258 29.7935H18.2055V25.969L16.9608 29.0614H16.1614L14.909 25.969V29.7935H13.9887V24.2343H14.909L16.5608 28.0363L18.205 24.2343H19.1252L19.1258 29.7935ZM23.9986 29.7935H20.5211V24.2343H21.4414V29.1072H23.9986V29.7935Z" fill="white"/>
</g>
<defs>
<clipPath id="clip0_515_7088">
<rect width="32" height="32" fill="white"/>
</clipPath>
</defs>
</svg>
